<?xml version="1.0" encoding="UTF-8"?> <svg xmlns="http://www.w3.org/2000/svg" id="a" data-name="radiant-logo.svg" width="151.544" height="46.368" viewBox="0 0 151.544 46.368"><path d="M17.232,23.475h4.829c3.421,0,4.105-1.924,4.105-3.036,0-1.069-.684-2.994-4.105-2.994h-6.9l-3.346-5.131h11.786c6.8,0,8.852,5.088,8.852,8.125,0,2.31-1.411,5.73-5.474,7.312l5.816,8.425h-7.269l-8.294-12.701Z" fill="#044862"></path><polygon points="13.884 17.414 9.176 17.414 5.783 12.313 10.492 12.313 13.884 17.414" fill="#91c36c"></polygon><polygon points="7.873 17.414 3.164 17.414 -.228 12.313 4.48 12.313 7.873 17.414" fill="#91c36c"></polygon><path d="M48.797,32.002h-8.567l-1.462,4.182h-5.78l8.942-21.455-.816-2.346h5.304l9.724,23.8h-5.883l-1.462-4.182Zm-7.139-4.114h5.678l-2.822-8.092-2.856,8.092Z" fill="#044862"></path><path d="M77.483,24.284c0,3.899-.947,6.857-2.84,8.874-1.893,2.018-4.675,3.026-8.347,3.026h-9.282V12.383h9.282c3.74,0,6.539,.986,8.398,2.958,1.859,1.972,2.789,4.953,2.789,8.943m-14.824,7.174h3.535c1.881,0,3.265-.578,4.149-1.734,.884-1.156,1.326-2.969,1.326-5.44s-.442-4.284-1.326-5.441c-.884-1.156-2.267-1.734-4.149-1.734h-3.535v14.349Z" fill="#044862"></path><rect x="78.865" y="12.384" width="5.644" height="23.8" fill="#044862"></rect><path d="M101.619,32.002h-8.568l-1.462,4.182h-5.78l8.942-21.455-.816-2.346h5.304l9.724,23.8h-5.882l-1.462-4.182Zm-7.14-4.114h5.678l-2.822-8.092-2.856,8.092Z" fill="#044862"></path><polygon points="125.449 36.184 115.112 21.768 115.112 36.184 109.978 36.184 109.978 14.594 108.414 12.384 114.534 12.384 124.598 26.528 124.598 12.384 129.733 12.384 129.733 36.184 125.449 36.184" fill="#044862"></polygon><polygon points="143.69 17.109 143.69 36.184 138.046 36.184 138.046 17.109 130.871 17.109 130.871 12.383 150.864 12.383 150.864 17.109 143.69 17.109" fill="#044862"></polygon></svg> 